<svg width="900" height="720" viewBox="0 0 900 720" fill="none" xmlns="http://www.w3.org/2000/svg" role="img" aria-hidden="true">
  <defs>
    <linearGradient id="bg" x1="120" y1="60" x2="760" y2="640" gradientUnits="userSpaceOnUse">
      <stop stop-color="#F6F1E8" />
      <stop offset="1" stop-color="#E5D7C6" />
    </linearGradient>
    <linearGradient id="stroke" x1="140" y1="120" x2="780" y2="540" gradientUnits="userSpaceOnUse">
      <stop stop-color="#A25A2A" stop-opacity="0.9" />
      <stop offset="1" stop-color="#735740" stop-opacity="0.78" />
    </linearGradient>
    <linearGradient id="glow" x1="420" y1="80" x2="420" y2="640" gradientUnits="userSpaceOnUse">
      <stop stop-color="#F5E3D1" stop-opacity="0.9" />
      <stop offset="1" stop-color="#C7A26A" stop-opacity="0.55" />
    </linearGradient>
    <filter id="grain" x="0" y="0" width="900" height="720" filterUnits="userSpaceOnUse" color-interpolation-filters="sRGB">
      <feTurbulence type="fractalNoise" baseFrequency="0.85" numOctaves="2" stitchTiles="stitch" />
      <feColorMatrix type="saturate" values="0" />
      <feComponentTransfer>
        <feFuncA type="linear" slope="0.12" />
      </feComponentTransfer>
    </filter>
  </defs>
  <rect width="900" height="720" rx="36" fill="url(#bg)" />
  <rect x="24" y="22" width="852" height="676" rx="32" fill="#FDF9F3" stroke="#D5CABC" stroke-width="3" />
  <rect x="64" y="62" width="772" height="596" rx="30" fill="url(#glow)" stroke="#D5CABC" stroke-width="2" />
  <rect x="128" y="124" width="642" height="472" rx="26" fill="#FBF7EF" stroke="url(#stroke)" stroke-width="2.6" />
  <rect x="167" y="163" width="564" height="194" rx="20" fill="#F1E7DA" stroke="#C8A26A" stroke-width="1.6" />
  <rect x="167" y="393" width="564" height="140" rx="18" fill="#ECE3D7" stroke="#B98F5C" stroke-width="1.6" />
  <path d="M210 270C252 242 310 232 362 246C420 262 470 306 528 316C594 328 660 302 692 272" stroke="#A25A2A" stroke-width="6" stroke-linecap="round" stroke-linejoin="round" />
  <path d="M222 430C260 422 298 436 320 454C352 482 398 497 440 488C492 476 510 438 566 426C612 416 674 430 700 450" stroke="#7B5C3E" stroke-width="6" stroke-linecap="round" stroke-linejoin="round" />
  <circle cx="222" cy="270" r="14" fill="#FFFFFF" stroke="#A25A2A" stroke-width="4" />
  <circle cx="350" cy="254" r="12" fill="#FFFFFF" stroke="#A25A2A" stroke-width="3" />
  <circle cx="524" cy="316" r="14" fill="#FFFFFF" stroke="#A25A2A" stroke-width="4" />
  <circle cx="686" cy="272" r="14" fill="#FFFFFF" stroke="#A25A2A" stroke-width="4" />
  <circle cx="228" cy="430" r="12" fill="#FFFFFF" stroke="#7B5C3E" stroke-width="3" />
  <circle cx="332" cy="458" r="12" fill="#FFFFFF" stroke="#7B5C3E" stroke-width="3" />
  <circle cx="454" cy="486" r="12" fill="#FFFFFF" stroke="#7B5C3E" stroke-width="3" />
  <circle cx="580" cy="432" r="12" fill="#FFFFFF" stroke="#7B5C3E" stroke-width="3" />
  <circle cx="686" cy="452" r="12" fill="#FFFFFF" stroke="#7B5C3E" stroke-width="3" />
  <rect x="210" y="196" width="128" height="38" rx="10" fill="#F6F1E8" stroke="#B98F5C" stroke-width="2" />
  <rect x="410" y="196" width="154" height="38" rx="10" fill="#F6F1E8" stroke="#B98F5C" stroke-width="2" />
  <rect x="612" y="196" width="96" height="38" rx="10" fill="#F6F1E8" stroke="#B98F5C" stroke-width="2" />
  <rect x="220" y="418" width="130" height="34" rx="10" fill="#F6F1E8" stroke="#9F7B55" stroke-width="1.6" />
  <rect x="402" y="446" width="140" height="34" rx="10" fill="#F6F1E8" stroke="#9F7B55" stroke-width="1.6" />
  <rect x="602" y="426" width="112" height="34" rx="10" fill="#F6F1E8" stroke="#9F7B55" stroke-width="1.6" />
  <text x="224" y="222" fill="#5C5348" font-family="'Plus Jakarta Sans', 'Inter', system-ui" font-size="18" font-weight="700">Research</text>
  <text x="430" y="222" fill="#5C5348" font-family="'Plus Jakarta Sans', 'Inter', system-ui" font-size="18" font-weight="700">Governance</text>
  <text x="626" y="222" fill="#5C5348" font-family="'Plus Jakarta Sans', 'Inter', system-ui" font-size="18" font-weight="700">Delivery</text>
  <text x="236" y="444" fill="#5C5348" font-family="'Plus Jakarta Sans', 'Inter', system-ui" font-size="17" font-weight="700">Stewardship</text>
  <text x="416" y="472" fill="#5C5348" font-family="'Plus Jakarta Sans', 'Inter', system-ui" font-size="17" font-weight="700">Diagnostics</text>
  <text x="618" y="452" fill="#5C5348" font-family="'Plus Jakarta Sans', 'Inter', system-ui" font-size="17" font-weight="700">Playbooks</text>
  <rect x="198" y="312" width="90" height="90" rx="16" fill="#C8A26A" fill-opacity="0.2" stroke="#A25A2A" stroke-width="2" />
  <rect x="310" y="330" width="90" height="90" rx="16" fill="#C8A26A" fill-opacity="0.2" stroke="#A25A2A" stroke-width="2" />
  <rect x="430" y="300" width="90" height="90" rx="16" fill="#C8A26A" fill-opacity="0.2" stroke="#A25A2A" stroke-width="2" />
  <rect x="544" y="334" width="90" height="90" rx="16" fill="#C8A26A" fill-opacity="0.2" stroke="#A25A2A" stroke-width="2" />
  <rect x="656" y="310" width="90" height="90" rx="16" fill="#C8A26A" fill-opacity="0.2" stroke="#A25A2A" stroke-width="2" />
  <line x1="190" y1="334" x2="712" y2="334" stroke="#D5CABC" stroke-width="2" stroke-dasharray="8 10" />
  <line x1="190" y1="368" x2="712" y2="368" stroke="#D5CABC" stroke-width="2" stroke-dasharray="8 10" />
  <line x1="190" y1="402" x2="712" y2="402" stroke="#D5CABC" stroke-width="2" stroke-dasharray="8 10" />
  <line x1="360" y1="188" x2="360" y2="520" stroke="#D5CABC" stroke-width="2" stroke-dasharray="6 10" />
  <line x1="540" y1="188" x2="540" y2="520" stroke="#D5CABC" stroke-width="2" stroke-dasharray="6 10" />
  <rect x="72" y="62" width="756" height="596" rx="30" fill="url(#bg)" filter="url(#grain)" />
</svg>
