<svg width="720" height="520" viewBox="0 0 720 520" fill="none" xmlns="http://www.w3.org/2000/svg" role="img" aria-labelledby="title desc">
  <title id="title">Ethotechnics focus illustration</title>
  <desc id="desc">Warm, abstract shapes linking research, governance, delivery, and stewardship.</desc>
  <g vector-effect="non-scaling-stroke">
    <rect x="12" y="12" width="696" height="496" rx="28" fill="#FBF7EF" stroke="#D5CABC" stroke-width="2" />
    <rect x="72" y="72" width="576" height="120" rx="22" fill="#F0E8DC" stroke="#D5CABC" stroke-width="2" />
    <rect x="72" y="196" width="198" height="246" rx="18" fill="#ECE3D7" stroke="#D5CABC" stroke-width="2" />
    <rect x="270" y="196" width="198" height="246" rx="18" fill="#F6F1E8" stroke="#D5CABC" stroke-width="2" />
    <rect x="468" y="196" width="180" height="246" rx="18" fill="#ECE3D7" stroke="#D5CABC" stroke-width="2" />
    <circle cx="170" cy="136" r="16" fill="#C78245" />
    <circle cx="350" cy="136" r="16" fill="#C8A26A" />
    <circle cx="530" cy="136" r="16" fill="#C78245" />
    <path d="M170 152v44c0 12 10 22 22 22h112" stroke="#A25A2A" stroke-width="4" stroke-linecap="round" />
    <path d="M350 152v44c0 12-10 22-22 22H222" stroke="#A25A2A" stroke-width="4" stroke-linecap="round" />
    <path d="M350 152v44c0 12 10 22 22 22h96" stroke="#A25A2A" stroke-width="4" stroke-linecap="round" />
    <path d="M530 152v44c0 12-10 22-22 22h-84" stroke="#A25A2A" stroke-width="4" stroke-linecap="round" />
    <rect x="110" y="228" width="122" height="76" rx="14" fill="#FBF7EF" stroke="#D5CABC" stroke-width="2" />
    <rect x="110" y="320" width="122" height="90" rx="14" fill="#F6F1E8" stroke="#D5CABC" stroke-width="2" />
    <rect x="302" y="228" width="136" height="92" rx="16" fill="#FBF7EF" stroke="#D5CABC" stroke-width="2" />
    <rect x="302" y="340" width="136" height="62" rx="14" fill="#F0E8DC" stroke="#D5CABC" stroke-width="2" />
    <rect x="500" y="228" width="116" height="68" rx="14" fill="#FBF7EF" stroke="#D5CABC" stroke-width="2" />
    <rect x="500" y="316" width="116" height="102" rx="18" fill="#F0E8DC" stroke="#D5CABC" stroke-width="2" />
    <path d="M170 384h60" stroke="#5C5348" stroke-width="3" stroke-linecap="round" stroke-dasharray="8 10" />
    <path d="M350 366h60" stroke="#5C5348" stroke-width="3" stroke-linecap="round" stroke-dasharray="8 10" />
    <path d="M530 356h52" stroke="#5C5348" stroke-width="3" stroke-linecap="round" stroke-dasharray="8 10" />
    <circle cx="170" cy="270" r="9" fill="#C78245" />
    <circle cx="350" cy="270" r="9" fill="#C8A26A" />
    <circle cx="530" cy="270" r="9" fill="#C78245" />
    <circle cx="170" cy="350" r="9" fill="#C8A26A" />
    <circle cx="350" cy="350" r="9" fill="#C78245" />
    <circle cx="530" cy="350" r="9" fill="#C8A26A" />
    <path d="M240 266h60m48 0h50m48 0h42" stroke="#5C5348" stroke-width="3" stroke-linecap="round" stroke-dasharray="10 12" />
    <path d="M240 348h60m48 0h50m48 0h42" stroke="#5C5348" stroke-width="3" stroke-linecap="round" stroke-dasharray="10 12" />
  </g>
</svg>
